# Blender v2.69 (sub 0) OBJ File: 'pyramid.blend'
# www.blender.org
mtllib pyramid.mtl
o Cube
v 8.574884 0.109460 -9.446845
v 8.574884 0.109460 9.446846
v -8.574885 0.109460 9.446844
v -8.574882 0.109460 -9.446850
v 2.442246 11.844023 -2.690589
v 2.442244 11.844023 2.690595
v -2.442248 11.844023 2.690593
v -2.442247 11.844023 -2.690592
vt 0.611076 0.610656
vt 0.999942 0.000058
vt 0.000058 0.340004
vt 0.989753 0.989603
vt 0.005252 0.002345
vt 0.015905 0.996045
vt 0.994733 0.995905
vt 0.993819 0.348257
vn 0.000000 1.000000 0.000000
vn -0.886267 -0.463175 0.000000
vn 0.000000 -0.498964 -0.866623
vn 0.886267 -0.463175 0.000000
vn -0.000001 -0.498964 0.866623
vn -0.000000 -0.498964 0.866623
usemtl Material
s off
f 1/1/1 4/2/1 2/3/1
f 1/1/2 2/3/2 5/4/2
f 2/3/3 3/5/3 6/6/3
f 3/5/4 4/2/4 7/7/4
f 5/4/5 8/8/5 1/1/5
f 4/2/1 3/5/1 2/3/1
f 2/3/2 6/6/2 5/4/2
f 3/5/3 7/7/3 6/6/3
f 4/2/4 8/8/4 7/7/4
f 8/8/6 4/2/6 1/1/6
